<svg xmlns="http://www.w3.org/2000/svg">
    <symbol id="grid">
        <path d="M14.072 8.52L13.176 15.32H15.544V17.88H12.824L12.168 23H9.16L9.832 17.88H5.784L5.112 23H2.104L2.776 17.88H0.488V15.32H3.112L4.04 8.52H1.672V5.944H4.376L5.032 0.919998H8.056L7.352 5.944H11.416L12.088 0.919998H15.096L14.408 5.944H16.728V8.52H14.072ZM6.12 15.32H10.168L11.08 8.52H7.016L6.12 15.32Z"
              fill="#C778DD"/>
    </symbol>

    <symbol id="telegram">
        <path d="M32.1586 0.340967L1.1503 12.5808C-0.0975299 13.1508 -0.519581 14.2923 0.8487 14.9118L8.80368 17.4995L28.0378 5.33177C29.088 4.5679 30.1632 4.77159 29.238 5.6119L12.7185 20.9224L12.1996 27.4017C12.6802 28.4021 13.5603 28.4068 14.1216 27.9095L18.692 23.4829L26.5195 29.4827C28.3375 30.5844 29.3267 29.8734 29.7179 27.8541L34.852 2.96937C35.3851 0.483814 34.476 -0.611346 32.1586 0.340967Z"
              fill="white"/>
    </symbol>

    <symbol id="github">
        <path fill-rule="evenodd" clip-rule="evenodd"
              d="M16.0001 1C7.52841 1 0.666748 7.86167 0.666748 16.3333C0.666748 23.1183 5.05591 28.8492 11.1509 30.8808C11.9176 31.015 12.2051 30.555 12.2051 30.1525C12.2051 29.7883 12.1859 28.5808 12.1859 27.2967C8.33342 28.0058 7.33675 26.3575 7.03008 25.495C6.85758 25.0542 6.11008 23.6933 5.45842 23.3292C4.92175 23.0417 4.15508 22.3325 5.43925 22.3133C6.64675 22.2942 7.50925 23.425 7.79675 23.885C9.17675 26.2042 11.3809 25.5525 12.2626 25.15C12.3967 24.1533 12.7992 23.4825 13.2401 23.0992C9.82842 22.7158 6.26342 21.3933 6.26342 15.5283C6.26342 13.8608 6.85758 12.4808 7.83508 11.4075C7.68175 11.0242 7.14508 9.4525 7.98841 7.34417C7.98841 7.34417 9.27258 6.94167 12.2051 8.91583C13.4317 8.57083 14.7351 8.39833 16.0384 8.39833C17.3417 8.39833 18.6451 8.57083 19.8717 8.91583C22.8042 6.9225 24.0884 7.34417 24.0884 7.34417C24.9317 9.4525 24.3951 11.0242 24.2417 11.4075C25.2192 12.4808 25.8134 13.8417 25.8134 15.5283C25.8134 21.4125 22.2292 22.7158 18.8176 23.0992C19.3734 23.5783 19.8526 24.4983 19.8526 25.9358C19.8526 27.9867 19.8334 29.635 19.8334 30.1525C19.8334 30.555 20.1209 31.0342 20.8876 30.8808C26.9443 28.8492 31.3334 23.0992 31.3334 16.3333C31.3334 7.86167 24.4717 1 16.0001 1Z"
              fill="white"/>
    </symbol>

    <symbol id="discord">
        <path d="M24.1641 7.65906C22.543 6.87826 20.8325 6.32099 19.0751 6.00114C19.0592 5.99832 19.0428 6.00076 19.0283 6.0081C19.0137 6.01544 19.0017 6.02733 18.9938 6.04214C18.7735 6.45211 18.5298 6.98835 18.3595 7.40816C16.4651 7.10643 14.5383 7.10643 12.6439 7.40816C12.4539 6.9405 12.239 6.48443 12.0002 6.04214C11.9922 6.02749 11.9801 6.01574 11.9656 6.00842C11.9511 6.0011 11.9348 5.99856 11.9189 6.00114C10.1611 6.31928 8.45021 6.87684 6.82991 7.65906C6.81605 7.66461 6.80445 7.67504 6.7971 7.68858C3.55651 12.7706 2.66745 17.7279 3.10339 22.623C3.10495 22.6459 3.11901 22.6689 3.1362 22.6836C5.02325 24.1507 7.13396 25.2708 9.37832 25.9962C9.39417 26.0014 9.4112 26.0013 9.42693 25.9957C9.44267 25.99 9.45629 25.9793 9.46582 25.965C9.94707 25.2763 10.3752 24.5498 10.7439 23.7856C10.7516 23.7699 10.7543 23.752 10.7514 23.7345C10.7486 23.7171 10.7405 23.7011 10.7283 23.6889C10.7202 23.6809 10.7107 23.6747 10.7002 23.6708C10.027 23.3993 9.37503 23.0731 8.7502 22.6951C8.73275 22.6847 8.71977 22.6677 8.71395 22.6476C8.70814 22.6274 8.70993 22.6057 8.71895 22.5869C8.72427 22.5747 8.73231 22.564 8.74239 22.5557C8.87364 22.4524 9.00489 22.3442 9.12989 22.236C9.14093 22.2266 9.15418 22.2206 9.16821 22.2186C9.18225 22.2166 9.19655 22.2186 9.20957 22.2245C13.3017 24.1858 17.7314 24.1858 21.7735 22.2245C21.787 22.2183 21.8018 22.2162 21.8164 22.2182C21.831 22.2202 21.8448 22.2264 21.8563 22.236C21.9813 22.3442 22.1126 22.4524 22.2438 22.5557C22.2544 22.5639 22.263 22.5747 22.2687 22.5872C22.2744 22.5996 22.277 22.6134 22.2764 22.6272C22.2758 22.641 22.2719 22.6544 22.2651 22.6663C22.2584 22.6781 22.2489 22.688 22.2376 22.6951C21.6142 23.0765 20.9614 23.4024 20.286 23.6692C20.2752 23.6733 20.2655 23.6798 20.2574 23.6883C20.2493 23.6968 20.243 23.7071 20.2391 23.7184C20.2355 23.7294 20.2341 23.741 20.2349 23.7525C20.2357 23.7641 20.2387 23.7754 20.2438 23.7856C20.6188 24.5482 21.0485 25.2763 21.5204 25.965C21.5299 25.9793 21.5435 25.99 21.5593 25.9957C21.575 26.0013 21.592 26.0014 21.6079 25.9962C23.856 25.2731 25.9701 24.1528 27.8594 22.6836C27.8688 22.6768 27.8767 22.6677 27.8824 22.6572C27.8881 22.6467 27.8914 22.635 27.8922 22.623C28.4141 16.9637 27.0188 12.0474 24.1954 7.69022C24.1925 7.68302 24.1883 7.67653 24.1829 7.67116C24.1775 7.66579 24.1711 7.66167 24.1641 7.65906V7.65906ZM11.3549 19.6417C10.1221 19.6417 9.10801 18.4544 9.10801 16.9982C9.10801 15.5403 10.1033 14.353 11.3549 14.353C12.6158 14.353 13.6205 15.5502 13.6017 16.9982C13.6017 18.4544 12.6064 19.6417 11.3549 19.6417ZM19.661 19.6417C18.4298 19.6417 17.4142 18.4544 17.4142 16.9982C17.4142 15.5403 18.4095 14.353 19.661 14.353C20.922 14.353 21.9282 15.5502 21.9079 16.9982C21.9079 18.4544 20.922 19.6417 19.661 19.6417Z"
              fill="white"/>
    </symbol>

    <symbol id="commas">
        <path d="M13.5416 20.8333C13.077 20.8333 12.6312 20.9041 12.1874 20.9687C12.3312 20.4853 12.4791 19.9937 12.7166 19.552C12.9541 18.9103 13.3249 18.3541 13.6937 17.7937C14.002 17.1874 14.5458 16.777 14.9458 16.2583C15.3645 15.7541 15.9354 15.4187 16.3874 14.9999C16.8312 14.5624 17.4124 14.3437 17.8749 14.0353C18.3583 13.7583 18.7791 13.452 19.2291 13.3062L20.352 12.8437L21.3395 12.4333L20.3291 8.39575L19.0854 8.69575C18.6874 8.79575 18.202 8.91242 17.6499 9.052C17.0854 9.15617 16.4833 9.44159 15.8124 9.702C15.1499 9.99784 14.3833 10.1978 13.6708 10.6728C12.9541 11.127 12.127 11.5062 11.3979 12.1145C10.6916 12.7416 9.83952 13.2853 9.21035 14.0833C8.52285 14.8291 7.84369 15.6124 7.3166 16.5041C6.70619 17.3541 6.2916 18.2874 5.8541 19.2103C5.45827 20.1333 5.13952 21.077 4.8791 21.9937C4.38535 23.8312 4.16452 25.577 4.0791 27.0708C4.00827 28.5666 4.04994 29.8103 4.13744 30.7103C4.16869 31.1353 4.22702 31.5478 4.26869 31.8333L4.32077 32.1833L4.37494 32.1708C4.74548 33.9017 5.59849 35.4923 6.83528 36.7586C8.07207 38.025 9.64211 38.9153 11.3638 39.3266C13.0854 39.738 14.8884 39.6535 16.564 39.0829C18.2397 38.5124 19.7195 37.4791 20.8325 36.1026C21.9454 34.7261 22.6459 33.0627 22.8529 31.3047C23.0599 29.5467 22.765 27.7661 22.0023 26.1687C21.2396 24.5714 20.0402 23.2226 18.543 22.2784C17.0457 21.3342 15.3117 20.8331 13.5416 20.8333ZM36.4583 20.8333C35.9937 20.8333 35.5479 20.9041 35.1041 20.9687C35.2479 20.4853 35.3958 19.9937 35.6333 19.552C35.8708 18.9103 36.2416 18.3541 36.6104 17.7937C36.9187 17.1874 37.4624 16.777 37.8624 16.2583C38.2812 15.7541 38.852 15.4187 39.3041 14.9999C39.7479 14.5624 40.3291 14.3437 40.7916 14.0353C41.2749 13.7583 41.6958 13.452 42.1458 13.3062L43.2687 12.8437L44.2562 12.4333L43.2458 8.39575L42.002 8.69575C41.6041 8.79575 41.1187 8.91242 40.5666 9.052C40.002 9.15617 39.3999 9.44159 38.7291 9.702C38.0687 9.99992 37.2999 10.1978 36.5874 10.6749C35.8708 11.1291 35.0437 11.5083 34.3145 12.1166C33.6083 12.7437 32.7562 13.2874 32.127 14.0833C31.4395 14.8291 30.7604 15.6124 30.2333 16.5041C29.6229 17.3541 29.2083 18.2874 28.7708 19.2103C28.3749 20.1333 28.0562 21.077 27.7958 21.9937C27.302 23.8312 27.0812 25.577 26.9958 27.0708C26.9249 28.5666 26.9666 29.8103 27.0541 30.7103C27.0854 31.1353 27.1437 31.5478 27.1854 31.8333L27.2374 32.1833L27.2916 32.1708C27.6621 33.9017 28.5152 35.4923 29.7519 36.7586C30.9887 38.025 32.5588 38.9153 34.2804 39.3266C36.0021 39.738 37.805 39.6535 39.4807 39.0829C41.1563 38.5124 42.6362 37.4791 43.7491 36.1026C44.862 34.7261 45.5625 33.0627 45.7696 31.3047C45.9766 29.5467 45.6817 27.7661 44.919 26.1687C44.1562 24.5714 42.9569 23.2226 41.4596 22.2784C39.9624 21.3342 38.2284 20.8331 36.4583 20.8333Z"
              fill="#FFC640"/>
    </symbol>



</svg>